<?xml version="1.0" encoding="iso-8859-1"?>
<!-- Generator: Adobe Illustrator 19.0.0, SVG Export Plug-In . SVG Version: 6.00 Build 0)  -->
<svg version="1.1" id="Capa_1" xmlns="http://www.w3.org/2000/svg" xmlns:xlink="http://www.w3.org/1999/xlink" x="0px" y="0px"
	 viewBox="0 0 512.001 512.001" style="enable-background:new 0 0 512.001 512.001;" xml:space="preserve">
<path style="fill:#F27281;" d="M506.301,213.35c-5.334-3.448-12.695-7.896-21.667-12.549c-3.086-1.6-4.318-5.392-2.762-8.5
	c4.524-9.038,7.864-16.963,10.153-22.888c2.447-6.335-0.631-13.474-6.922-16.034c-23.734-9.661-82.82-28.297-141.077-4.146
	c4.967-62.868-31.017-113.304-47.539-132.891c-4.379-5.191-12.119-5.913-17.388-1.628c-4.927,4.007-11.432,9.633-18.63,16.728
	c-2.475,2.44-6.462,2.44-8.937,0c-7.197-7.095-13.702-12.721-18.63-16.729c-5.269-4.285-13.009-3.563-17.388,1.628
	c-16.522,19.587-52.505,70.023-47.539,132.891c-58.257-24.151-117.343-5.514-141.077,4.146c-6.291,2.561-9.369,9.699-6.922,16.034
	c2.289,5.925,5.629,13.85,10.153,22.888c1.556,3.108,0.324,6.9-2.762,8.5c-8.972,4.652-16.333,9.101-21.667,12.549
	c-5.704,3.687-7.409,11.271-3.825,17.04c13.523,21.766,50.373,71.57,111.7,86.274c-40.974,47.944-41.508,109.9-39.654,135.459
	c0.491,6.774,6.329,11.908,13.11,11.538c6.342-0.346,14.912-1.074,24.905-2.583c3.437-0.519,6.662,1.824,7.23,5.253
	c1.652,9.971,3.608,18.346,5.239,24.484c1.744,6.564,8.43,10.529,15.024,8.903c24.88-6.135,83.636-25.793,116.571-79.577
	c32.935,53.784,91.691,73.442,116.571,79.577c6.594,1.626,13.281-2.34,15.025-8.903c1.631-6.139,3.587-14.514,5.239-24.484
	c0.568-3.429,3.794-5.772,7.23-5.253c9.993,1.509,18.563,2.237,24.905,2.583c6.782,0.37,12.619-4.764,13.11-11.538
	c1.853-25.558,1.319-87.514-39.655-135.457c61.326-14.704,98.177-64.508,111.7-86.274
	C513.71,224.622,512.005,217.037,506.301,213.35z"/>
<path style="fill:#EA6376;" d="M215.596,16.255c-0.026,0.03-0.056,0.057-0.081,0.087c-16.522,19.587-52.505,70.023-47.539,132.891
	c-58.257-24.151-117.343-5.514-141.077,4.146c-6.291,2.561-9.369,9.699-6.922,16.034c2.289,5.925,5.629,13.85,10.153,22.888
	c1.556,3.108,0.324,6.9-2.762,8.5c-8.972,4.652-16.333,9.101-21.667,12.549c-5.704,3.687-7.409,11.271-3.825,17.04
	c13.523,21.766,50.373,71.57,111.7,86.274c-40.975,47.943-41.509,109.899-39.655,135.458c0.491,6.774,6.329,11.908,13.11,11.538
	c6.342-0.346,14.912-1.074,24.905-2.583c3.437-0.519,6.662,1.824,7.23,5.253c1.652,9.971,3.608,18.346,5.239,24.484
	c1.744,6.564,8.43,10.529,15.024,8.903c24.88-6.135,83.636-25.793,116.571-79.577c32.935,53.784,91.691,73.442,116.571,79.577
	c6.594,1.626,13.281-2.34,15.025-8.903c1.631-6.139,3.587-14.514,5.239-24.484c0.224-1.353,0.866-2.532,1.767-3.438
	C208.208,403.787,203.291,95.761,215.596,16.255z"/>
<path style="fill:#FFFFFF;" d="M256.001,277.891c-4.142,0-7.5-3.357-7.5-7.5v-72.98c0-4.143,3.358-7.5,7.5-7.5
	c4.142,0,7.5,3.357,7.5,7.5v72.979C263.501,274.533,260.143,277.891,256.001,277.891z"/>
<circle style="fill:#F7D88B;" cx="256.001" cy="197.411" r="20.02"/>
<path style="fill:#FFFFFF;" d="M256.001,277.891c-1.919,0-3.839-0.732-5.303-2.196l-51.604-51.604c-2.929-2.93-2.929-7.678,0-10.608
	c2.929-2.928,7.678-2.928,10.606,0l51.604,51.604c2.929,2.93,2.929,7.678,0,10.608C259.84,277.158,257.92,277.891,256.001,277.891z"
	/>
<circle style="fill:#F7D88B;" cx="204.401" cy="218.781" r="20.02"/>
<path style="fill:#FFFFFF;" d="M256.001,277.891h-72.98c-4.142,0-7.5-3.357-7.5-7.5c0-4.142,3.358-7.5,7.5-7.5h72.98
	c4.142,0,7.5,3.358,7.5,7.5S260.143,277.891,256.001,277.891z"/>
<circle style="fill:#F7D88B;" cx="183.021" cy="270.391" r="20.02"/>
<path style="fill:#FFFFFF;" d="M204.396,329.495c-1.919,0-3.839-0.732-5.303-2.196c-2.929-2.93-2.929-7.678,0-10.607l51.604-51.605
	c2.929-2.928,7.678-2.928,10.606,0c2.929,2.93,2.929,7.678,0,10.608l-51.604,51.604
	C208.235,328.763,206.316,329.495,204.396,329.495z"/>
<circle style="fill:#F7D88B;" cx="204.401" cy="321.991" r="20.02"/>
<path style="fill:#FFFFFF;" d="M256.001,350.87c-4.142,0-7.5-3.357-7.5-7.5v-72.979c0-4.142,3.358-7.5,7.5-7.5
	c4.142,0,7.5,3.358,7.5,7.5v72.979C263.501,347.513,260.143,350.87,256.001,350.87z"/>
<circle style="fill:#F7D88B;" cx="256.001" cy="343.371" r="20.02"/>
<path style="fill:#FFFFFF;" d="M307.605,329.495c-1.919,0-3.839-0.732-5.303-2.196l-51.605-51.604c-2.929-2.93-2.929-7.678,0-10.608
	c2.929-2.928,7.678-2.928,10.606,0l51.604,51.605c2.929,2.93,2.929,7.678,0,10.607C311.444,328.763,309.525,329.495,307.605,329.495
	z"/>
<circle style="fill:#F7D88B;" cx="307.601" cy="321.991" r="20.02"/>
<path style="fill:#FFFFFF;" d="M328.98,277.891h-72.979c-4.142,0-7.5-3.357-7.5-7.5c0-4.142,3.358-7.5,7.5-7.5h72.979
	c4.142,0,7.5,3.358,7.5,7.5S333.123,277.891,328.98,277.891z"/>
<circle style="fill:#F7D88B;" cx="328.981" cy="270.391" r="20.02"/>
<path style="fill:#FFFFFF;" d="M256.001,277.891c-1.919,0-3.839-0.732-5.303-2.196c-2.929-2.93-2.929-7.678,0-10.608l51.605-51.604
	c2.929-2.928,7.678-2.928,10.606,0c2.929,2.93,2.929,7.678,0,10.608l-51.604,51.604C259.84,277.158,257.92,277.891,256.001,277.891z
	"/>
<circle style="fill:#F7D88B;" cx="307.601" cy="218.781" r="20.02"/>
<g style="opacity:0.1;">
	<path d="M256.001,152.957c-4.142,0-7.5-3.357-7.5-7.5V68.452c0-4.143,3.358-7.5,7.5-7.5c4.142,0,7.5,3.357,7.5,7.5v77.005
		C263.501,149.6,260.143,152.957,256.001,152.957z"/>
	<path d="M137.184,239.286c-0.768,0-1.549-0.119-2.319-0.369l-73.237-23.796c-3.939-1.28-6.095-5.511-4.815-9.45
		c1.28-3.94,5.51-6.094,9.451-4.815l73.236,23.796c3.939,1.28,6.095,5.511,4.815,9.45
		C143.285,237.271,140.345,239.286,137.184,239.286z"/>
	<path d="M137.298,441.263c-1.528,0-3.071-0.466-4.402-1.434c-3.351-2.435-4.094-7.125-1.659-10.476l45.262-62.298
		c2.434-3.352,7.124-4.097,10.476-1.659c3.351,2.435,4.094,7.125,1.659,10.476l-45.262,62.298
		C141.905,440.189,139.618,441.263,137.298,441.263z"/>
	<path d="M374.818,239.286c-3.162,0-6.102-2.015-7.131-5.185c-1.28-3.939,0.876-8.17,4.815-9.45l73.236-23.796
		c3.939-1.281,8.17,0.875,9.451,4.815c1.28,3.939-0.876,8.17-4.815,9.45l-73.236,23.796
		C376.368,239.167,375.586,239.286,374.818,239.286z"/>
	<path d="M374.704,441.263c-2.319,0-4.606-1.072-6.074-3.093l-45.262-62.298c-2.435-3.351-1.692-8.041,1.659-10.476
		c3.352-2.436,8.042-1.692,10.476,1.659l45.262,62.298c2.435,3.351,1.692,8.041-1.659,10.476
		C377.774,440.797,376.232,441.263,374.704,441.263z"/>
</g>
<g>
</g>
<g>
</g>
<g>
</g>
<g>
</g>
<g>
</g>
<g>
</g>
<g>
</g>
<g>
</g>
<g>
</g>
<g>
</g>
<g>
</g>
<g>
</g>
<g>
</g>
<g>
</g>
<g>
</g>
</svg>
