<!--?xml version="1.0" encoding="utf-8"?-->
<!-- Generator: Adobe Illustrator 18.0.0, SVG Export Plug-In . SVG Version: 6.00 Build 0)  -->

<svg version="1.1" id="_x31_0" xmlns="http://www.w3.org/2000/svg" xmlns:xlink="http://www.w3.org/1999/xlink" x="0px" y="0px" viewBox="0 0 512 512" style="width: 256px; height: 256px; opacity: 1;" xml:space="preserve">
<style type="text/css">
	.st0{fill:#374149;}
</style>
<g>
	<path class="st0" d="M0,45.566v420.867h512v-24.851V45.566H0z M49.707,95.27h412.586v321.457H49.707V95.27z" style="fill: rgb(170, 170, 170);"></path>
	<path class="st0" d="M335.496,224.59c-7.754-9.992-21.809-9.992-29.562,0l-81.297,104.778c-8.195,10.558-23.242,9.855-30.586-1.434
		l-34.808-53.512c-7.746-11.906-23.859-11.906-31.606,0l-53.379,82.062c-9.183,14.118,0.004,33.731,15.801,33.731h87.363h57.145
		h187.371c16.566,0,25.527-21.321,14.781-35.165L335.496,224.59z" style="fill: rgb(170, 170, 170);"></path>
	<path class="st0" d="M181.582,212.774c20.546,0,37.206-16.657,37.206-37.207s-16.66-37.211-37.206-37.211
		c-20.551,0-37.211,16.661-37.211,37.211S161.031,212.774,181.582,212.774z" style="fill: rgb(170, 170, 170);"></path>
</g>
</svg>
