<!--?xml version="1.0" encoding="utf-8"?-->
<!-- Generator: Adobe Illustrator 18.1.1, SVG Export Plug-In . SVG Version: 6.00 Build 0)  -->

<svg version="1.1" id="_x31_0" xmlns="http://www.w3.org/2000/svg" xmlns:xlink="http://www.w3.org/1999/xlink" x="0px" y="0px" viewBox="0 0 512 512" style="width: 256px; height: 256px; opacity: 1;" xml:space="preserve">
<style type="text/css">
	.st0{fill:#374149;}
</style>
<g>
	<path class="st0" d="M256,0C114.617,0,0,114.614,0,256c0,141.383,114.617,256,256,256c141.39,0,256-114.617,256-256
		C512,114.614,397.39,0,256,0z M256,448c-105.867,0-192-86.133-192-192c0-105.871,86.133-192,192-192c105.875,0,192,86.129,192,192
		C448,361.867,361.875,448,256,448z" style="fill: rgb(75, 75, 75);"></path>
	<path class="st0" d="M389.39,186.355c0.059-0.086,0.126-0.16,0.18-0.242c-7.367,3.266-15.191,5.644-23.336,7.125
		c-1.988,0.324-3.984,0.617-6.008,0.805c8.332-5.062,15.031-12.45,19.39-21.223c1.161-2.258,2.266-4.55,3.098-6.961
		c-0.059,0.031-0.122,0.058-0.18,0.094c0.023-0.078,0.07-0.148,0.098-0.23c-9.953,5.902-20.984,10.192-32.718,12.5
		c-9.398-10.011-22.79-16.27-37.61-16.27c-28.454,0-51.523,23.07-51.523,51.524c0,3.672,0.426,7.242,1.156,10.699
		c0.054,0.343,0.086,0.687,0.148,1.035c-37.43-1.887-71.144-17.805-96.007-42.602c-3.508-3.531-6.867-7.238-10.02-11.149
		c-0.008,0.016-0.015,0.031-0.023,0.047c-0.035-0.043-0.078-0.082-0.114-0.125c-4.438,7.609-6.976,16.461-6.976,25.902
		c0,14.657,6.179,27.836,16.007,37.223c2.066,2.027,4.258,3.945,6.676,5.641c-8.359-0.301-16.218-2.602-23.102-6.422
		c-0.004,0.215-0.004,0.434-0.004,0.649c0,20.758,12.367,38.508,30.059,46.668c3.484,1.652,7.113,3.05,10.996,3.906
		c-4.246,1.133-8.695,1.754-13.297,1.754c-2.684,0-5.294-0.266-7.86-0.664c-0.558-0.114-1.14-0.164-1.687-0.313
		c0.012,0.027,0.023,0.051,0.031,0.074c-0.058-0.012-0.121-0.012-0.18-0.023c5.742,17.926,21.047,31.574,39.902,34.969
		c2.641,0.507,5.34,0.816,8.09,0.914c-17.61,13.754-39.774,21.957-63.852,21.957c-3.476,0-6.89-0.269-10.281-0.601
		c-0.641-0.098-1.294-0.133-1.922-0.254c0.086,0.055,0.176,0.102,0.262,0.156c-0.113-0.011-0.234-0.007-0.347-0.019
		c22.797,14.618,49.882,23.149,78.977,23.149c46.374,0,82.434-18.825,107.202-46c0.211-0.234,0.43-0.462,0.645-0.699
		c2.668-2.965,5.188-6.031,7.586-9.176c0.574-0.75,1.156-1.492,1.714-2.254c2.027-2.769,3.934-5.605,5.758-8.488
		c0.73-1.156,1.469-2.297,2.164-3.469c1.626-2.722,3.13-5.5,4.57-8.301c0.664-1.289,1.332-2.566,1.958-3.875
		c1.441-3.003,2.75-6.05,3.984-9.117c0.414-1.031,0.844-2.047,1.234-3.086c1.41-3.727,2.649-7.497,3.758-11.282
		c0.086-0.301,0.188-0.602,0.27-0.902c3.801-13.282,5.75-26.809,5.75-39.949c0-2.234-0.047-4.454-0.149-6.665
		c7.989-5.766,15.09-12.702,21.153-20.468c1.59-1.981,3.16-3.977,4.621-6.059C389.554,186.293,389.473,186.32,389.39,186.355z" style="fill: rgb(75, 75, 75);"></path>
</g>
</svg>
