<!--?xml version="1.0" encoding="utf-8"?-->
<!-- Generator: Adobe Illustrator 18.1.1, SVG Export Plug-In . SVG Version: 6.00 Build 0)  -->

<svg version="1.1" id="_x32_" xmlns="http://www.w3.org/2000/svg" xmlns:xlink="http://www.w3.org/1999/xlink" x="0px" y="0px" viewBox="0 0 512 512" style="width: 512px; height: 512px; opacity: 1;" xml:space="preserve">
<style type="text/css">
	.st0{fill:#4B4B4B;}
</style>
<g>
	<path class="st0" d="M442.406,276.718l-36.45-66.28l-59.66-53.03l-5.788,3.314c-1.496-0.883-3.202-1.338-4.906-1.338
		c-1.653,0-3.314,0.42-4.81,1.277l-10.581,6.043l-28.588-39.117c0,0-28.168-24.862-33.144-28.168h-19.046l-84.496,124.907
		l-16.458-19.196c-1.854-2.151-4.538-3.393-7.363-3.393c-0.088,0-0.158,0-0.245,0c-2.929,0.088-5.658,1.461-7.434,3.769
		l-4.302,5.553l-4.802-5.597L74.57,256.831l-38.112,53.022L0,412.581h512L442.406,276.718z M96.056,274.259l33.59-49.663
		l7.302,33.59L96.056,274.259z M183.691,385.27h-42.36l8.762-36.51l-8.762-30.669l16.073-40.91l2.921,45.283l23.366,35.059V385.27z
		 M285.939,383.809v-46.742l20.455,48.203L285.939,383.809z M381.383,279.375c-1.985-1.303-4.425-1.687-6.707-1.075
		c-2.283,0.612-4.198,2.178-5.256,4.294l-11.911,23.795l7.311,48.204l-42.352-52.585c0,0-16.074-23.367-14.613-30.678
		c1.452-7.294,15.934-57.578,15.934-57.578c0.507-1.837-0.14-3.795-1.653-4.968c-1.512-1.163-3.577-1.312-5.221-0.349
		l-45.579,26.375l-36.52,26.296L212.9,269.87l4.39,40.91l-25.274-40.927c-1.312-2.134-1.592-4.749-0.76-7.11
		c0.83-2.362,2.685-4.224,5.045-5.054l15.148-5.334l13.152-37.989l23.63-88.623h7.372c4.906,3.927,17.254,14.613,26.008,22.326
		l8.037,10.992c-1.444,9.243-5.072,29.943-9.55,37.778c-4.486,7.862,14.315-6.716,24.582-17.193l4.189,5.728
		c1.504,2.072,3.883,3.192,6.296,3.192c1.312,0,2.641-0.332,3.865-1.032l15.225-8.692l18.881,53.056l15.925-4.25
		c3.542-0.945,7.294,0.56,9.209,3.707l46.445,76.494L381.383,279.375z" style="fill: rgb(75, 75, 75);"></path>
</g>
</svg>
