<!--?xml version="1.0" encoding="utf-8"?-->
<!-- Generator: Adobe Illustrator 18.1.1, SVG Export Plug-In . SVG Version: 6.00 Build 0)  -->

<svg version="1.1" id="_x31_0" xmlns="http://www.w3.org/2000/svg" xmlns:xlink="http://www.w3.org/1999/xlink" x="0px" y="0px" viewBox="0 0 512 512" style="width: 256px; height: 256px; opacity: 1;" xml:space="preserve">
<style type="text/css">
	.st0{fill:#374149;}
</style>
<g>
	<path class="st0" d="M256,0C114.617,0,0,114.61,0,256c0,141.383,114.617,256,256,256c141.386,0,256-114.617,256-256
		C512,114.61,397.386,0,256,0z M256,448c-105.867,0-192-86.133-192-192S150.133,64,256,64c105.871,0,192,86.133,192,192
		S361.871,448,256,448z" style="fill: rgb(75, 75, 75);"></path>
	<path class="st0" d="M286.141,246.114c-0.122-0.723-0.16-1.45-0.309-2.168c-0.114-0.535-0.313-1.047-0.438-1.578
		c-0.566-2.446-1.168-4.883-2.019-7.274l-0.062,0.058c-0.024-0.054-0.031-0.117-0.051-0.175l-40.754,40.758
		c-0.371,0.43-0.742,0.828-1.149,1.234l-46.187,46.187c-10.656,10.657-28.086,10.657-38.742,0
		c-10.652-10.648-10.652-28.086,0-38.734l46.191-46.195c0.329-0.328,0.684-0.656,1.028-0.969l28.835-28.836l12.055-11.957
		c-0.023-0.008-0.047-0.015-0.07-0.023l0.125-0.129c-13.254-4.863-27.742-5.145-41.226-1.153c-0.184,0.058-0.371,0.106-0.554,0.16
		c-1.954,0.598-3.875,1.278-5.778,2.063c-0.012,0.003-0.027,0.011-0.043,0.019c-3.828,1.582-7.515,3.558-11.046,5.898
		c-0.043,0.027-0.086,0.054-0.129,0.082c-1.75,1.167-3.442,2.426-5.094,3.781c-0.019,0.016-0.035,0.031-0.05,0.043
		c-1.653,1.355-3.332,2.66-4.871,4.199l-46.191,46.195c-25.477,25.477-25.477,66.898,0,92.375c25.465,25.469,66.902,25.484,92.382,0
		l46.188-46.188C283.84,288.129,289.746,266.434,286.141,246.114z" style="fill: rgb(75, 75, 75);"></path>
	<path class="st0" d="M382.39,162.016c-25.465-25.469-66.902-25.477-92.382,0l-46.188,46.187
		c-15.633,15.633-21.538,37.281-17.976,57.566c0.129,0.762,0.172,1.531,0.328,2.289c0.098,0.481,0.278,0.938,0.39,1.414
		c0.57,2.496,1.191,4.984,2.062,7.426l0.066-0.062c0.02,0.058,0.027,0.121,0.051,0.18l40.75-40.758
		c0.375-0.43,0.746-0.828,1.149-1.234l46.187-46.187c10.656-10.656,28.09-10.656,38.742,0c10.652,10.648,10.652,28.086,0,38.742
		l-46.191,46.187c-0.329,0.328-0.684,0.656-1.028,0.969l-28.671,28.668l-12.219,12.125c0.023,0.008,0.047,0.016,0.074,0.023
		l-0.129,0.13c13.254,4.863,27.742,5.144,41.226,1.152c0.184-0.054,0.375-0.106,0.558-0.16c1.954-0.598,3.871-1.278,5.77-2.062
		c0.023-0.008,0.039-0.016,0.058-0.024c3.825-1.582,7.508-3.554,11.031-5.89c0.043-0.031,0.09-0.058,0.137-0.086
		c1.75-1.168,3.446-2.43,5.098-3.79c0.008-0.003,0.016-0.011,0.024-0.019c1.66-1.355,3.343-2.668,4.89-4.215l46.191-46.187
		C407.867,228.914,407.867,187.492,382.39,162.016z" style="fill: rgb(75, 75, 75);"></path>
</g>
</svg>
