<!--?xml version="1.0" encoding="utf-8"?-->
<!-- Generator: Adobe Illustrator 18.1.1, SVG Export Plug-In . SVG Version: 6.00 Build 0)  -->

<svg version="1.1" id="_x31_0" xmlns="http://www.w3.org/2000/svg" xmlns:xlink="http://www.w3.org/1999/xlink" x="0px" y="0px" viewBox="0 0 512 512" style="width: 256px; height: 256px; opacity: 1;" xml:space="preserve">
<style type="text/css">
	.st0{fill:#374149;}
</style>
<g>
	<path class="st0" d="M256,0C114.617,0,0,114.617,0,256s114.617,256,256,256c141.386,0,256-114.617,256-256S397.386,0,256,0z
		 M256,448c-105.867,0-192-86.133-192-192S150.133,64,256,64c105.871,0,192,86.133,192,192S361.871,448,256,448z" style="fill: rgb(75, 75, 75);"></path>
	<path class="st0" d="M219.676,178.637v38.27H175.16h-0.137l0,0h-0.16v51.898h44.813v133.164h53.594V268.805h44.699l5.918-45.902
		l0.774-5.84h-0.019l0.019-0.156h-51.39v-33.133c0-15.023,4.172-25.266,25.718-25.266l27.481-0.012v-46.414
		c-4.754-0.633-21.066-2.047-40.043-2.047C246.805,110.035,219.676,134.218,219.676,178.637z" style="fill: rgb(75, 75, 75);"></path>
</g>
</svg>
